HIERARCHY
ROOT Hips
{
	OFFSET 0.0000 0.0000 0.0000
	CHANNELS 6 Xposition Yposition Zposition Zrotation Xrotation Yrotation
	JOINT Ab
	{
		OFFSET -0.0000 8.1305 -0.0000
		CHANNELS 3 Zrotation Xrotation Yrotation
		JOINT Chest
		{
			OFFSET -0.0000 26.2902 -0.0000
			CHANNELS 3 Zrotation Xrotation Yrotation
			JOINT Neck
			{
				OFFSET -0.0000 26.2902 0.0000
				CHANNELS 3 Zrotation Xrotation Yrotation
				JOINT Head
				{
					OFFSET -0.0000 10.8167 0.0000
					CHANNELS 3 Zrotation Xrotation Yrotation
					End Site
					{
						OFFSET -0.0000 16.7167 0.0000
					}
				}
			}
			JOINT LeftCollar
			{
				OFFSET -0.0000 26.2902 0.0000
				CHANNELS 3 Zrotation Xrotation Yrotation
				JOINT LeftShoulder
				{
					OFFSET 19.6667 -0.0000 0.0000
					CHANNELS 3 Zrotation Xrotation Yrotation
					JOINT LeftElbow
					{
						OFFSET 27.2190 0.0000 0.0000
						CHANNELS 3 Zrotation Xrotation Yrotation
						JOINT LeftWrist
						{
							OFFSET 30.7431 0.0000 0.0000
							CHANNELS 3 Zrotation Xrotation Yrotation
							End Site
							{
								OFFSET 0.0000 -14.7500 0.0000
							}
						}
					}
				}
			}
			JOINT RightCollar
			{
				OFFSET -0.0000 26.2902 0.0000
				CHANNELS 3 Zrotation Xrotation Yrotation
				JOINT RightShoulder
				{
					OFFSET -19.6667 0.0000 0.0000
					CHANNELS 3 Zrotation Xrotation Yrotation
					JOINT RightElbow
					{
						OFFSET -27.2190 0.0000 0.0000
						CHANNELS 3 Zrotation Xrotation Yrotation
						JOINT RightWrist
						{
							OFFSET -30.7431 0.0000 0.0000
							CHANNELS 3 Zrotation Xrotation Yrotation
							End Site
							{
								OFFSET -0.0000 -14.7500 0.0000
							}
						}
					}
				}
			}
		}
	}
	JOINT LeftHip
	{
		OFFSET 11.8000 0.0000 0.0000
		CHANNELS 3 Zrotation Xrotation Yrotation
		JOINT LeftKnee
		{
			OFFSET -0.0000 -39.7832 0.0000
			CHANNELS 3 Zrotation Xrotation Yrotation
			JOINT LeftAnkle
			{
				OFFSET -0.0000 -41.7317 0.0000
				CHANNELS 3 Zrotation Xrotation Yrotation
				End Site
				{
					OFFSET -0.0000 -4.9167 16.7167
				}
			}
		}
	}
	JOINT RightHip
	{
		OFFSET -11.8000 0.0000 0.0000
		CHANNELS 3 Zrotation Xrotation Yrotation
		JOINT RightKnee
		{
			OFFSET -0.0000 -39.7832 0.0000
			CHANNELS 3 Zrotation Xrotation Yrotation
			JOINT RightAnkle
			{
				OFFSET -0.0000 -41.7317 0.0000
				CHANNELS 3 Zrotation Xrotation Yrotation
				End Site
				{
					OFFSET -0.0000 -4.9167 16.7167
				}
			}
		}
	}
}
MOTION
Frames: 7
Frame Time: 0.010000
-18.7409 96.7538 174.2136 357.9450 356.5090 181.3562 356.8452 348.0671 0.0221 2.4594 11.0696 0.1120 355.0255 358.3042 359.7049 4.9755 5.3622 359.5472 340.0701 357.4163 14.7305 322.2829 61.8159 335.1112 8.5619 357.4134 326.1363 90.0118 355.2672 348.2280 25.9292 355.8448 342.1996 45.2838 51.8469 6.1268 341.4406 354.6227 32.1551 270.5654 353.7373 10.6810 355.3212 1.6490 358.9103 357.9529 6.5420 4.4398 353.9748 352.2714 12.8366 357.0721 3.7811 10.9502 7.0518 7.6876 12.8449 347.3690 344.6742 308.2365 
-18.7846 96.7477 174.2087 357.9578 356.4672 181.3482 356.8319 348.0971 0.0258 2.4251 11.0847 0.1168 355.0653 358.3336 359.7210 4.9526 5.4716 359.5558 340.1084 357.4264 14.7159 322.2580 61.8466 335.0731 8.6572 357.3908 326.1936 90.0116 355.2567 348.2497 25.9126 355.8709 342.1738 45.2971 51.9161 6.1881 341.4734 354.6101 32.1779 270.5733 353.8080 10.5040 355.3034 1.6037 358.8840 357.9500 6.5595 4.4578 354.0601 352.2559 12.8643 357.0505 3.6972 10.8923 7.0710 7.7724 12.8769 347.3523 344.6551 308.2620 
-18.8347 96.7411 174.2006 357.9698 356.4276 181.3416 356.8077 348.1198 0.0283 2.4212 11.1330 0.1169 355.0953 358.3491 359.7219 4.8969 5.5742 359.5544 340.1321 357.3917 14.7021 322.1141 61.8377 335.2098 8.7206 357.3246 326.1751 90.0283 355.2598 348.2001 25.8685 355.8386 342.1727 45.3252 52.0055 6.2220 341.3964 354.5620 32.1500 270.8335 353.7521 10.6794 355.2768 1.5626 358.8483 357.9545 6.5784 4.4777 354.0849 352.2368 12.8640 357.0197 3.6475 10.9870 7.1050 7.7844 12.7787 347.3616 344.6377 308.2587 
-18.8793 96.7346 174.1938 357.9801 356.3792 181.3192 356.7831 348.1214 0.0348 2.3955 11.2113 0.1378 355.2458 358.2648 359.6954 4.6492 5.7998 359.5346 340.1524 357.3970 14.6825 322.0636 61.7796 335.2688 8.6583 357.3425 326.1542 90.1870 355.2331 348.2481 25.8686 355.8894 342.2141 45.3569 51.9330 6.1795 341.4992 354.6030 32.2629 270.8405 353.7980 10.7319 355.2661 1.5101 358.8128 357.9278 6.5983 4.5042 353.6763 352.1816 12.8801 356.9985 3.5523 10.9711 7.1216 7.8801 12.7912 347.3901 344.5684 308.2557 
-18.9291 96.7301 174.1898 357.9836 356.3212 181.3011 356.7364 348.1300 0.0575 2.4084 11.2573 0.1532 355.2632 358.2963 359.6911 4.6132 5.8811 359.5255 340.1415 357.3941 14.6939 322.2584 61.8295 335.0741 8.6688 357.3831 326.1968 90.2129 355.2345 348.3279 25.8258 355.8823 342.2465 45.4147 51.9343 6.1604 341.3922 354.5688 32.3000 270.9262 353.8132 10.6548 355.2363 1.4493 358.7730 357.9216 6.6146 4.5405 354.1005 352.1858 12.8917 356.9567 3.4474 10.9782 7.1606 7.9665 12.8005 347.3923 344.5298 308.2313 
-18.9788 96.7283 174.1786 357.9965 356.2718 181.2698 356.7011 348.1260 0.0754 2.4008 11.3305 0.1758 355.3052 358.3236 359.6814 4.5891 5.9629 359.5143 340.1177 357.4083 14.7037 322.4639 61.7959 334.8811 8.5773 357.3967 326.2116 90.2229 355.2327 348.2461 25.8239 355.9245 342.2875 45.4505 51.8059 6.1280 341.4915 354.5983 32.3799 270.9421 353.7846 10.7652 355.0831 1.1041 358.8184 358.1720 7.1995 4.7484 353.9977 351.9110 12.5970 356.9270 3.3567 10.9203 7.1751 8.0567 12.8710 347.3976 344.4806 308.2395 
-19.0328 96.7202 174.1837 358.0079 356.1829 181.2579 356.6946 348.1199 0.0750 2.3465 11.3788 0.1835 355.3426 358.3082 359.6544 4.5680 6.0762 359.4823 340.1619 357.3995 14.6819 322.3602 61.7693 334.9327 8.6784 357.3703 326.2293 90.0306 355.2133 348.1260 25.8103 355.8824 342.2780 45.4282 51.9016 6.2170 341.3936 354.5600 32.3441 271.0750 353.8005 10.7434 355.0602 1.0143 358.7475 358.1604 7.2054 4.7225 354.0038 351.8744 12.6594 356.8882 3.1927 10.8465 7.2210 8.1972 12.9339 347.3760 344.4367 308.2222 
